<svg aria-hidden="true" style="position: absolute; width: 0; height: 0; overflow: hidden;" version="1.1" xmlns="http://www.w3.org/2000/svg" xmlns:xlink="http://www.w3.org/1999/xlink">
<defs>
<symbol id="icon-menu-burger" viewBox="0 0 50 32">
<path fill="none" stroke="#23461e" style="stroke: var(--color1, #23461e)" stroke-linejoin="miter" stroke-linecap="round" stroke-miterlimit="4" stroke-width="4.5714" d="M2.286 2.286h45.714"></path>
<path fill="none" stroke="#23461e" style="stroke: var(--color1, #23461e)" stroke-linejoin="miter" stroke-linecap="round" stroke-miterlimit="4" stroke-width="4.5714" d="M2.286 16h45.714"></path>
<path fill="none" stroke="#23461e" style="stroke: var(--color1, #23461e)" stroke-linejoin="miter" stroke-linecap="round" stroke-miterlimit="4" stroke-width="4.5714" d="M2.286 29.714h45.714"></path>
</symbol>
<symbol id="icon-clock" viewBox="0 0 32 32">
<path fill="#18a739" style="fill: var(--color2, #18a739)" d="M15.28 0.8c-8.369 0-15.2 6.831-15.2 15.2s6.831 15.2 15.2 15.2c8.369 0 15.2-6.831 15.2-15.2s-6.831-15.2-15.2-15.2zM15.28 29.419c-7.399 0-13.419-6.020-13.419-13.419s6.020-13.419 13.419-13.419c7.399 0 13.419 6.020 13.419 13.419s-6.020 13.419-13.419 13.419z"></path>
<path fill="#18a739" style="fill: var(--color2, #18a739)" d="M7.723 24.448c0.492 0 0.891-0.399 0.891-0.891s-0.399-0.891-0.891-0.891-0.891 0.399-0.891 0.891c0 0.492 0.399 0.891 0.891 0.891z"></path>
<path fill="#18a739" style="fill: var(--color2, #18a739)" d="M22.837 9.334c0.492 0 0.891-0.399 0.891-0.891s-0.399-0.891-0.891-0.891c-0.492 0-0.891 0.399-0.891 0.891s0.399 0.891 0.891 0.891z"></path>
<path fill="#18a739" style="fill: var(--color2, #18a739)" d="M7.093 7.813c-0.348 0.348-0.348 0.912 0 1.26s0.912 0.348 1.26 0c0.348-0.348 0.348-0.912 0-1.26s-0.912-0.348-1.26 0z"></path>
<path fill="#18a739" style="fill: var(--color2, #18a739)" d="M22.207 22.927c-0.348 0.348-0.348 0.912 0 1.26s0.912 0.348 1.26 0c0.348-0.348 0.348-0.912 0-1.26s-0.912-0.348-1.26 0z"></path>
<path fill="#18a739" style="fill: var(--color2, #18a739)" d="M15.28 7.984c0.492 0 0.891-0.399 0.891-0.891v-1.781c0-0.492-0.399-0.891-0.891-0.891s-0.891 0.399-0.891 0.891v1.781c0 0.492 0.399 0.891 0.891 0.891z"></path>
<path fill="#18a739" style="fill: var(--color2, #18a739)" d="M15.28 24.016c-0.492 0-0.891 0.399-0.891 0.891v1.781c0 0.492 0.399 0.891 0.891 0.891s0.891-0.399 0.891-0.891v-1.781c0-0.492-0.399-0.891-0.891-0.891z"></path>
<path fill="#18a739" style="fill: var(--color2, #18a739)" d="M7.264 16c0-0.492-0.399-0.891-0.891-0.891h-1.781c-0.492 0-0.891 0.399-0.891 0.891s0.399 0.891 0.891 0.891h1.781c0.492 0 0.891-0.399 0.891-0.891z"></path>
<path fill="#18a739" style="fill: var(--color2, #18a739)" d="M23.295 16c0 0.492 0.399 0.891 0.891 0.891h1.781c0.492 0 0.891-0.399 0.891-0.891s-0.399-0.891-0.891-0.891h-1.781c-0.492 0-0.891 0.399-0.891 0.891z"></path>
<path fill="#18a739" style="fill: var(--color2, #18a739)" d="M16.17 15.631v-4.975c0-0.492-0.399-0.891-0.891-0.891s-0.891 0.399-0.891 0.891v5.344c0 0.236 0.094 0.463 0.261 0.63l5.344 5.344c0.348 0.348 0.912 0.348 1.26 0s0.348-0.912 0-1.26l-5.083-5.083z"></path>
</symbol>
<symbol id="icon-mail" viewBox="0 0 32 32">
<path fill="#18a739" style="fill: var(--color2, #18a739)" d="M27.808 5.313h-25.056c-1.47 0-2.672 1.196-2.672 2.672v16.031c0 1.476 1.202 2.672 2.672 2.672h25.056c1.47 0 2.672-1.196 2.672-2.672v-16.031c0-1.476-1.202-2.672-2.672-2.672zM27.398 7.094c-0.864 0.867-11.011 11.047-11.428 11.465-0.348 0.349-1.032 0.349-1.38 0l-11.428-11.465h24.236zM1.861 23.688v-15.376l7.663 7.688-7.663 7.688zM3.162 24.906l7.62-7.645 2.546 2.555c1.043 1.047 2.86 1.046 3.904 0l2.546-2.555 7.62 7.645h-24.236zM28.698 23.688l-7.663-7.688 7.663-7.688v15.376z"></path>
</symbol>
<symbol id="icon-phone" viewBox="0 0 30 32">
<path fill="#18a739" style="fill: var(--color2, #18a739)" d="M24.025 19.936c-0.622-0.648-1.373-0.995-2.169-0.995-0.789 0-1.546 0.34-2.194 0.988l-2.028 2.021c-0.167-0.090-0.334-0.173-0.494-0.257-0.231-0.115-0.449-0.224-0.635-0.34-1.899-1.206-3.625-2.778-5.28-4.812-0.802-1.014-1.341-1.867-1.732-2.733 0.526-0.481 1.014-0.982 1.489-1.463 0.18-0.18 0.359-0.366 0.539-0.545 1.347-1.347 1.347-3.093 0-4.44l-1.752-1.752c-0.199-0.199-0.404-0.404-0.597-0.61-0.385-0.398-0.789-0.808-1.206-1.193-0.622-0.616-1.367-0.943-2.149-0.943s-1.54 0.327-2.181 0.943c-0.006 0.006-0.006 0.006-0.013 0.013l-2.182 2.201c-0.821 0.821-1.29 1.822-1.392 2.983-0.154 1.873 0.398 3.619 0.821 4.761 1.039 2.804 2.592 5.402 4.908 8.187 2.81 3.356 6.192 6.005 10.054 7.872 1.476 0.699 3.445 1.527 5.646 1.668 0.135 0.007 0.276 0.013 0.404 0.013 1.482 0 2.727-0.533 3.702-1.591 0.006-0.013 0.019-0.019 0.026-0.032 0.334-0.404 0.719-0.77 1.123-1.161 0.276-0.263 0.558-0.539 0.834-0.828 0.635-0.661 0.969-1.431 0.969-2.22 0-0.796-0.34-1.559-0.988-2.201l-3.523-3.535zM26.322 26.692c-0.007 0-0.007 0.006 0 0-0.25 0.269-0.507 0.513-0.783 0.783-0.417 0.398-0.84 0.815-1.238 1.283-0.648 0.693-1.412 1.020-2.412 1.020-0.096 0-0.199 0-0.295-0.006-1.906-0.122-3.676-0.866-5.004-1.501-3.632-1.758-6.82-4.254-9.47-7.417-2.188-2.637-3.651-5.075-4.62-7.693-0.597-1.598-0.815-2.842-0.719-4.017 0.064-0.751 0.353-1.373 0.885-1.906l2.188-2.188c0.314-0.295 0.648-0.456 0.975-0.456 0.404 0 0.731 0.244 0.937 0.449 0.006 0.006 0.013 0.013 0.019 0.019 0.391 0.366 0.764 0.744 1.155 1.148 0.199 0.205 0.404 0.411 0.61 0.622l1.752 1.752c0.68 0.68 0.68 1.309 0 1.989-0.186 0.186-0.366 0.372-0.552 0.552-0.539 0.552-1.052 1.065-1.61 1.566-0.013 0.013-0.026 0.019-0.032 0.032-0.552 0.552-0.449 1.091-0.334 1.456 0.006 0.019 0.013 0.039 0.019 0.058 0.456 1.104 1.097 2.143 2.072 3.381l0.006 0.007c1.771 2.181 3.638 3.882 5.698 5.184 0.263 0.167 0.533 0.302 0.789 0.43 0.231 0.116 0.449 0.224 0.635 0.34 0.026 0.013 0.051 0.032 0.077 0.045 0.218 0.109 0.424 0.16 0.635 0.16 0.533 0 0.866-0.334 0.975-0.443l2.194-2.194c0.218-0.218 0.565-0.481 0.969-0.481 0.398 0 0.725 0.25 0.924 0.468 0.006 0.006 0.006 0.006 0.013 0.013l3.535 3.535c0.661 0.655 0.661 1.328 0.007 2.008z"></path>
<path fill="#18a739" style="fill: var(--color2, #18a739)" d="M16.429 8.335c1.681 0.282 3.208 1.078 4.427 2.297s2.008 2.746 2.297 4.427c0.071 0.423 0.436 0.719 0.853 0.719 0.051 0 0.096-0.006 0.148-0.013 0.475-0.077 0.789-0.526 0.712-1.001-0.346-2.034-1.309-3.888-2.778-5.357s-3.324-2.432-5.358-2.778c-0.475-0.077-0.917 0.237-1.001 0.706s0.225 0.924 0.699 1.001z"></path>
<path fill="#18a739" style="fill: var(--color2, #18a739)" d="M30.365 14.514c-0.571-3.349-2.149-6.397-4.575-8.822s-5.473-4.004-8.822-4.575c-0.468-0.083-0.911 0.237-0.995 0.706-0.077 0.475 0.237 0.918 0.712 1.001 2.99 0.507 5.717 1.925 7.885 4.087 2.169 2.169 3.58 4.896 4.087 7.885 0.071 0.423 0.436 0.719 0.853 0.719 0.051 0 0.096-0.006 0.148-0.013 0.468-0.071 0.789-0.52 0.706-0.988z"></path>
</symbol>
<symbol id="icon-geo" viewBox="0 0 30 32">
<path fill="#18a739" style="fill: var(--color2, #18a739)" d="M15.2 1.104c-6.287 0-11.4 5.113-11.4 11.4 0 7.902 10.29 18.284 10.727 18.723 0.186 0.184 0.429 0.277 0.673 0.277s0.486-0.093 0.673-0.277c0.437-0.439 10.727-10.82 10.727-18.723 0-6.287-5.113-11.4-11.4-11.4zM15.2 29.18c-2.269-2.428-9.5-10.64-9.5-16.676 0-5.238 4.262-9.5 9.5-9.5s9.5 4.262 9.5 9.5c0 6.031-7.231 14.248-9.5 16.676z"></path>
<path fill="#18a739" style="fill: var(--color2, #18a739)" d="M15.2 6.804c-3.143 0-5.7 2.557-5.7 5.7s2.557 5.7 5.7 5.7c3.143 0 5.7-2.557 5.7-5.7s-2.557-5.7-5.7-5.7zM15.2 16.304c-2.096 0-3.8-1.704-3.8-3.8s1.704-3.8 3.8-3.8c2.096 0 3.8 1.704 3.8 3.8s-1.704 3.8-3.8 3.8z"></path>
</symbol>
<symbol id="icon-star" viewBox="0 0 35 32">
<path fill="#e7711b" style="fill: var(--color3, #e7711b)" d="M17.702 0l3.929 12.161h12.714l-10.285 7.516 3.929 12.161-10.285-7.516-10.286 7.516 3.929-12.161-10.286-7.516h12.714l3.929-12.161z"></path>
</symbol>
<symbol id="icon-arrow" viewBox="0 0 103 32">
<path d="M99.796 16.674c0.694-0.694 0.694-1.82 0-2.514l-11.314-11.314c-0.694-0.694-1.82-0.694-2.514 0s-0.694 1.82 0 2.514l10.057 10.057-10.057 10.057c-0.694 0.694-0.694 1.82 0 2.514s1.82 0.694 2.514 0l11.314-11.314zM0 17.195h98.539v-3.556h-98.539v3.556z"></path>
</symbol>
<symbol id="icon-plus" viewBox="0 0 30 32">
<path d="M15.2 31.2c-0.394 0-0.771-0.156-1.050-0.435s-0.435-0.656-0.435-1.050v-27.431c0-0.394 0.156-0.771 0.435-1.050s0.656-0.435 1.050-0.435c0.394 0 0.771 0.156 1.050 0.435s0.435 0.656 0.435 1.050v27.431c0 0.394-0.156 0.771-0.435 1.050s-0.656 0.435-1.050 0.435z"></path>
<path d="M28.916 17.484h-27.431c-0.394 0-0.771-0.156-1.050-0.435s-0.435-0.656-0.435-1.050c0-0.394 0.156-0.771 0.435-1.050s0.656-0.435 1.050-0.435h27.431c0.394 0 0.771 0.156 1.050 0.435s0.435 0.656 0.435 1.050c0 0.394-0.156 0.771-0.435 1.050s-0.656 0.435-1.050 0.435z"></path>
</symbol>
<symbol id="icon-minus" viewBox="0 0 30 32">
<path d="M28.916 17.484h-27.431c-0.394 0-0.771-0.156-1.050-0.435s-0.435-0.656-0.435-1.050c0-0.394 0.156-0.771 0.435-1.050s0.656-0.435 1.050-0.435h27.431c0.394 0 0.771 0.156 1.050 0.435s0.435 0.656 0.435 1.050c0 0.394-0.156 0.771-0.435 1.050s-0.656 0.435-1.050 0.435z"></path>
</symbol>
<symbol id="icon-house" viewBox="0 0 33 32">
<path fill="#18a739" style="fill: var(--color2, #18a739)" d="M5.691 18.016c-0.292-0.266-0.672-0.415-1.067-0.416h-2.667c-0.884 0-1.6 0.716-1.6 1.6v11.2c0 0.884 0.716 1.6 1.6 1.6h2.667c0.453-0.001 0.883-0.195 1.184-0.533h13.376c0.783 0 1.55-0.215 2.219-0.622l9.995-6.084c0.473-0.285 0.806-0.754 0.919-1.295s-0.003-1.104-0.321-1.555c-0.011-0.019-0.023-0.036-0.037-0.053-0.516-0.685-1.412-0.966-2.227-0.697l-1.641 0.546v-6.773h1.6c0.194 0 0.372-0.105 0.466-0.275s0.089-0.377-0.014-0.541l-2.939-4.699c-0.101-0.162-0.281-0.258-0.471-0.251s-0.364 0.114-0.453 0.283-0.083 0.372 0.018 0.534l2.433 3.883h-14.745l-4.669-7.467h8.107c0.295 0 0.533-0.239 0.533-0.533s-0.239-0.533-0.533-0.533h-9.067c-0.183 0.001-0.353 0.097-0.45 0.252h-0.003l-5.333 8.533c-0.102 0.164-0.107 0.371-0.013 0.54s0.272 0.274 0.465 0.274h2.667v3.083zM4.624 30.933h-2.667c-0.295 0-0.533-0.239-0.533-0.533v-11.2c0-0.295 0.239-0.533 0.533-0.533h2.667c0.295 0 0.533 0.239 0.533 0.533v11.2c0 0.295-0.239 0.533-0.533 0.533zM30.064 22.171c0.366-0.121 0.768-0.005 1.013 0.293 0.008 0.013 0.017 0.026 0.026 0.038 0.158 0.209 0.22 0.475 0.17 0.732s-0.207 0.48-0.431 0.615l-9.993 6.085c-0.501 0.305-1.077 0.466-1.664 0.466h-12.96v-10.667h0.96c0.984 0.001 1.939 0.336 2.708 0.95 0.958 0.764 2.147 1.181 3.372 1.183h2.789c0.846-0.003 1.613 0.498 1.95 1.275 0.211 0.456 0.155 0.991-0.147 1.392h-3.248c-1.053 0.001-2.082 0.312-2.959 0.896l-0.389 0.261c-0.244 0.164-0.309 0.496-0.145 0.74s0.496 0.309 0.74 0.145l0.386-0.259c0.701-0.467 1.525-0.716 2.367-0.717h4.741c0.288 0 0.573-0.047 0.846-0.139l9.869-3.29zM27.024 22.060l-7.17 2.39c-0.162 0.055-0.333 0.083-0.505 0.083h-0.291c0.204-0.587 0.18-1.23-0.069-1.801-0.384-0.895-1.158-1.565-2.099-1.815v-5.985h10.133v7.126zM13.691 14.933h2.133v5.867h-2.56c-0.984-0.001-1.939-0.336-2.708-0.95-0.958-0.764-2.147-1.181-3.372-1.183h-0.427v-4.114l3.2-5.12 3.281 5.25c0.098 0.156 0.268 0.251 0.452 0.251zM8.357 6.873l0.971 1.554-3.4 5.44h-1.945l4.373-6.994z"></path>
<path fill="#18a739" style="fill: var(--color2, #18a739)" d="M24.352 0c-0.289-0-0.525 0.229-0.533 0.518v0.015c0 0.196-0.049 4.8-4.272 4.8-0.295 0-0.533 0.239-0.533 0.533s0.239 0.533 0.533 0.533c4.207 0 4.271 4.605 4.272 4.8-0.004 0.295 0.232 0.537 0.526 0.541s0.537-0.232 0.541-0.526v-0.014c0-0.196 0.049-4.8 4.271-4.8 0.295 0 0.533-0.239 0.533-0.533s-0.239-0.533-0.533-0.533c-4.206 0-4.271-4.605-4.271-4.8 0-0.295-0.239-0.533-0.533-0.533zM26.726 5.867c-1.092 0.576-1.936 1.531-2.374 2.686-0.438-1.155-1.282-2.11-2.374-2.686 1.092-0.576 1.936-1.531 2.374-2.686 0.438 1.155 1.282 2.11 2.374 2.686z"></path>
<path fill="#18a739" style="fill: var(--color2, #18a739)" d="M25.424 17.067c-0.295 0-0.533 0.239-0.533 0.533v2.815l-2.835 0.945c-0.28 0.093-0.431 0.395-0.338 0.675s0.395 0.431 0.675 0.338l3.2-1.067c0.218-0.073 0.365-0.277 0.365-0.507v-3.2c0-0.295-0.239-0.533-0.533-0.533z"></path>
</symbol>
<symbol id="icon-mop" viewBox="0 0 33 32">
<path fill="#18a739" style="fill: var(--color2, #18a739)" d="M10.544 18.251c-0.625-0.625-1.638-0.625-2.262 0-0.262 0.264-0.423 0.612-0.454 0.982-0.182-0.021-0.365-0.032-0.548-0.034-2.298-0.003-4.338 1.468-5.062 3.649s0.033 4.58 1.876 5.951h-2.147c-0.884 0-1.6 0.716-1.6 1.6s0.716 1.6 1.6 1.6h28.8c0.884 0 1.6-0.716 1.6-1.6s-0.716-1.6-1.6-1.6h-2.027l1.414-7.541c0.761-0.225 1.24-0.975 1.126-1.76s-0.787-1.367-1.581-1.366c-0.001-0.973-0.659-1.822-1.6-2.066 0-0.022 0-0.045 0-0.067-0.001-1.16-0.752-2.186-1.857-2.538s-2.311 0.050-2.983 0.996c-0.162-0.038-0.327-0.057-0.493-0.058-0.993 0.001-1.855 0.686-2.080 1.653-0.968 0.225-1.653 1.087-1.653 2.080-0.794-0.002-1.468 0.58-1.583 1.365s0.365 1.536 1.126 1.761l1.417 7.541h-3.627c-0.002-1.767-1.433-3.198-3.2-3.2h-0.645c0.115-0.53 0.142-1.076 0.078-1.615 0.617-0.055 1.145-0.463 1.356-1.045s0.065-1.234-0.374-1.671l-0.377-0.377 18.16-18.16c0.41-0.403 0.572-0.995 0.425-1.55s-0.581-0.99-1.137-1.137-1.147 0.015-1.55 0.424l-18.16 18.16-0.378-0.378zM21.147 17.067c0.295 0 0.533-0.239 0.533-0.533-0-0.372 0.193-0.717 0.511-0.911s0.713-0.208 1.044-0.039c0.13 0.066 0.281 0.077 0.418 0.029s0.25-0.15 0.31-0.282c0.316-0.679 1.062-1.048 1.794-0.888s1.255 0.808 1.257 1.557c-0.001 0.138-0.019 0.275-0.053 0.409-0.043 0.172 0.002 0.354 0.121 0.486s0.295 0.196 0.471 0.171c0.587 0.003 1.061 0.48 1.061 1.067h-8.533c0-0.589 0.478-1.067 1.067-1.067zM19.013 19.2h10.667c0.295 0 0.533 0.239 0.533 0.533s-0.239 0.533-0.533 0.533h-10.667c-0.295 0-0.533-0.239-0.533-0.533s0.239-0.533 0.533-0.533zM19.653 21.333h9.387l-1.403 7.467h-6.581l-1.403-7.467zM20.613 29.867h10.133c0.295 0 0.533 0.239 0.533 0.533s-0.239 0.533-0.533 0.533h-28.8c-0.295 0-0.533-0.239-0.533-0.533s0.239-0.533 0.533-0.533h18.667zM10.48 25.6c-0.295 0-0.533 0.239-0.533 0.533s0.239 0.533 0.533 0.533h2.667c1.178 0 2.133 0.955 2.133 2.133h-8c-2.356 0-4.267-1.91-4.267-4.267s1.91-4.267 4.267-4.267c0.296 0.003 0.591 0.036 0.881 0.099 0.037 0.052 0.078 0.102 0.122 0.149l3.017 3.017c0.047 0.044 0.097 0.084 0.149 0.122 0.063 0.289 0.096 0.584 0.099 0.88 0 0.36-0.045 0.718-0.136 1.067h-0.931zM12.807 22.777c-0.1 0.1-0.236 0.156-0.377 0.156s-0.277-0.056-0.377-0.156l-3.017-3.017c-0.202-0.209-0.199-0.542 0.007-0.748s0.538-0.209 0.748-0.006l3.017 3.017c0.208 0.208 0.208 0.546 0 0.754l0.001 0.001zM29.836 1.223c0.134-0.139 0.332-0.194 0.519-0.145s0.332 0.194 0.381 0.381c0.049 0.186-0.007 0.385-0.145 0.519l-18.16 18.16-0.21-0.209-0.545-0.545 18.16-18.16z"></path>
<path fill="#18a739" style="fill: var(--color2, #18a739)" d="M22.747 22.4h-1.067c-0.295 0-0.533 0.239-0.533 0.533s0.239 0.533 0.533 0.533h1.067c0.295 0 0.533-0.239 0.533-0.533s-0.239-0.533-0.533-0.533z"></path>
<path fill="#18a739" style="fill: var(--color2, #18a739)" d="M26.48 22.4h-1.6c-0.295 0-0.533 0.239-0.533 0.533s0.239 0.533 0.533 0.533h1.6c0.295 0 0.533-0.239 0.533-0.533s-0.239-0.533-0.533-0.533z"></path>
<path fill="#18a739" style="fill: var(--color2, #18a739)" d="M30.213 14.933c0.884 0 1.6-0.716 1.6-1.6s-0.716-1.6-1.6-1.6c-0.884 0-1.6 0.716-1.6 1.6s0.716 1.6 1.6 1.6zM30.213 12.8c0.295 0 0.533 0.239 0.533 0.533s-0.239 0.533-0.533 0.533c-0.295 0-0.533-0.239-0.533-0.533s0.239-0.533 0.533-0.533z"></path>
<path fill="#18a739" style="fill: var(--color2, #18a739)" d="M27.547 8.533c-0.884 0-1.6 0.716-1.6 1.6s0.716 1.6 1.6 1.6c0.884 0 1.6-0.716 1.6-1.6s-0.716-1.6-1.6-1.6zM27.547 10.667c-0.295 0-0.533-0.239-0.533-0.533s0.239-0.533 0.533-0.533c0.295 0 0.533 0.239 0.533 0.533s-0.239 0.533-0.533 0.533z"></path>
<path fill="#18a739" style="fill: var(--color2, #18a739)" d="M14.742 0c-0.289-0-0.525 0.229-0.533 0.518v0.015c0 0.196-0.049 4.8-4.272 4.8-0.295 0-0.533 0.239-0.533 0.533s0.239 0.533 0.533 0.533c4.207 0 4.271 4.605 4.272 4.8-0.004 0.295 0.232 0.537 0.526 0.541s0.537-0.232 0.541-0.526v-0.014c0-0.196 0.049-4.8 4.271-4.8 0.294 0 0.533-0.239 0.533-0.533s-0.239-0.533-0.533-0.533c-4.197 0-4.27-4.587-4.271-4.8 0-0.295-0.239-0.533-0.533-0.533zM17.116 5.867c-1.092 0.576-1.936 1.531-2.374 2.686-0.438-1.155-1.282-2.11-2.374-2.686 1.092-0.576 1.936-1.531 2.374-2.686 0.438 1.155 1.282 2.11 2.374 2.686z"></path>
<path fill="#18a739" style="fill: var(--color2, #18a739)" d="M3.547 16.003v0.003c0.002 0.294 0.242 0.532 0.536 0.53s0.532-0.242 0.53-0.536c0-0.131 0.045-3.2 2.667-3.2 0.295 0 0.533-0.239 0.533-0.533s-0.239-0.533-0.533-0.533c-2.622 0-2.667-3.070-2.667-3.2v-0.003c-0.001-0.295-0.24-0.533-0.535-0.532s-0.533 0.24-0.532 0.535c0 0.131-0.045 3.2-2.667 3.2-0.295 0-0.533 0.239-0.533 0.533s0.239 0.533 0.533 0.533c2.622 0 2.667 3.070 2.667 3.2v0.003zM2.83 12.267c0.54-0.36 0.972-0.86 1.25-1.447 0.278 0.587 0.71 1.087 1.25 1.447-0.54 0.36-0.972 0.86-1.25 1.447-0.278-0.587-0.71-1.087-1.25-1.447z"></path>
<path fill="#18a739" style="fill: var(--color2, #18a739)" d="M6.103 4.377l0.8 0.8c0.209 0.202 0.542 0.199 0.748-0.006s0.209-0.538 0.006-0.748l-0.8-0.8c-0.134-0.139-0.332-0.194-0.519-0.145s-0.332 0.194-0.381 0.381c-0.049 0.186 0.007 0.385 0.145 0.519z"></path>
<path fill="#18a739" style="fill: var(--color2, #18a739)" d="M4.503 2.777c0.209 0.202 0.542 0.199 0.748-0.006s0.209-0.538 0.006-0.748l-0.8-0.8c-0.209-0.202-0.542-0.199-0.748 0.006s-0.209 0.538-0.006 0.748l0.8 0.8z"></path>
<path fill="#18a739" style="fill: var(--color2, #18a739)" d="M3.703 5.177c0.208 0.208 0.546 0.208 0.754 0l0.8-0.8c0.202-0.209 0.199-0.542-0.006-0.748s-0.538-0.209-0.748-0.006l-0.8 0.8c-0.208 0.208-0.208 0.546 0 0.754z"></path>
<path fill="#18a739" style="fill: var(--color2, #18a739)" d="M6.48 2.933c0.141-0 0.277-0.056 0.377-0.156l0.8-0.8c0.139-0.134 0.194-0.332 0.145-0.519s-0.194-0.332-0.381-0.381c-0.186-0.049-0.385 0.007-0.519 0.145l-0.8 0.8c-0.152 0.153-0.198 0.382-0.116 0.581s0.277 0.329 0.493 0.329z"></path>
</symbol>
<symbol id="icon-calendar" viewBox="0 0 33 32">
<path fill="#18a739" style="fill: var(--color2, #18a739)" d="M28.852 4h-2.5v-1c0-0.53-0.211-1.039-0.586-1.414s-0.884-0.586-1.414-0.586c-0.53 0-1.039 0.211-1.414 0.586s-0.586 0.884-0.586 1.414v1h-4v-1c0-0.53-0.211-1.039-0.586-1.414s-0.884-0.586-1.414-0.586c-0.53 0-1.039 0.211-1.414 0.586s-0.586 0.884-0.586 1.414v1h-4v-1c0-0.53-0.211-1.039-0.586-1.414s-0.884-0.586-1.414-0.586c-0.53 0-1.039 0.211-1.414 0.586s-0.586 0.884-0.586 1.414v1h-2.5c-0.663 0-1.299 0.263-1.768 0.732s-0.732 1.105-0.732 1.768v20c0 0.663 0.263 1.299 0.732 1.768s1.105 0.732 1.768 0.732h14c0.133 0 0.26-0.053 0.354-0.146s0.146-0.221 0.146-0.354c0-0.133-0.053-0.26-0.146-0.354s-0.221-0.146-0.354-0.146h-14c-0.397-0.001-0.778-0.16-1.059-0.441s-0.439-0.662-0.441-1.059v-15.5h28v8.5c0 0.133 0.053 0.26 0.146 0.354s0.221 0.146 0.354 0.146c0.133 0 0.26-0.053 0.354-0.146s0.146-0.221 0.146-0.354v-13c0-0.663-0.263-1.299-0.732-1.768s-1.105-0.732-1.768-0.732zM23.352 3c0-0.265 0.105-0.52 0.293-0.707s0.442-0.293 0.707-0.293c0.265 0 0.52 0.105 0.707 0.293s0.293 0.442 0.293 0.707v3c0 0.265-0.105 0.52-0.293 0.707s-0.442 0.293-0.707 0.293c-0.265 0-0.52-0.105-0.707-0.293s-0.293-0.442-0.293-0.707v-3zM15.352 3c0-0.265 0.105-0.52 0.293-0.707s0.442-0.293 0.707-0.293c0.265 0 0.52 0.105 0.707 0.293s0.293 0.442 0.293 0.707v3c0 0.265-0.105 0.52-0.293 0.707s-0.442 0.293-0.707 0.293c-0.265 0-0.52-0.105-0.707-0.293s-0.293-0.442-0.293-0.707v-3zM7.352 3c0-0.265 0.105-0.52 0.293-0.707s0.442-0.293 0.707-0.293c0.265 0 0.52 0.105 0.707 0.293s0.293 0.442 0.293 0.707v3c0 0.265-0.105 0.52-0.293 0.707s-0.442 0.293-0.707 0.293c-0.265 0-0.52-0.105-0.707-0.293s-0.293-0.442-0.293-0.707v-3zM30.352 10h-28v-3.5c0.001-0.397 0.16-0.778 0.441-1.059s0.662-0.439 1.059-0.441h2.5v1c0 0.53 0.211 1.039 0.586 1.414s0.884 0.586 1.414 0.586c0.53 0 1.039-0.211 1.414-0.586s0.586-0.884 0.586-1.414v-1h4v1c0 0.53 0.211 1.039 0.586 1.414s0.884 0.586 1.414 0.586c0.53 0 1.039-0.211 1.414-0.586s0.586-0.884 0.586-1.414v-1h4v1c0 0.53 0.211 1.039 0.586 1.414s0.884 0.586 1.414 0.586c0.53 0 1.039-0.211 1.414-0.586s0.586-0.884 0.586-1.414v-1h2.5c0.397 0.001 0.778 0.16 1.059 0.441s0.439 0.662 0.441 1.059v3.5z"></path>
<path fill="#18a739" style="fill: var(--color2, #18a739)" d="M15.352 14.5c0-0.265-0.105-0.52-0.293-0.707s-0.442-0.293-0.707-0.293h-2c-0.265 0-0.52 0.105-0.707 0.293s-0.293 0.442-0.293 0.707v1.5c0 0.265 0.105 0.52 0.293 0.707s0.442 0.293 0.707 0.293h2c0.265 0 0.52-0.105 0.707-0.293s0.293-0.442 0.293-0.707v-1.5zM12.352 16v-1.5h2v1.5h-2z"></path>
<path fill="#18a739" style="fill: var(--color2, #18a739)" d="M9.352 14.5c0-0.265-0.105-0.52-0.293-0.707s-0.442-0.293-0.707-0.293h-2c-0.265 0-0.52 0.105-0.707 0.293s-0.293 0.442-0.293 0.707v1.5c0 0.265 0.105 0.52 0.293 0.707s0.442 0.293 0.707 0.293h2c0.265 0 0.52-0.105 0.707-0.293s0.293-0.442 0.293-0.707v-1.5zM6.352 16v-1.5h2v1.5h-2z"></path>
<path fill="#18a739" style="fill: var(--color2, #18a739)" d="M26.352 17c0.265 0 0.52-0.105 0.707-0.293s0.293-0.442 0.293-0.707v-1.5c0-0.265-0.105-0.52-0.293-0.707s-0.442-0.293-0.707-0.293h-2c-0.265 0-0.52 0.105-0.707 0.293s-0.293 0.442-0.293 0.707v1.5c0 0.265 0.105 0.52 0.293 0.707s0.442 0.293 0.707 0.293h2zM24.352 14.5h2v1.5h-2v-1.5z"></path>
<path fill="#18a739" style="fill: var(--color2, #18a739)" d="M15.352 19c0-0.265-0.105-0.52-0.293-0.707s-0.442-0.293-0.707-0.293h-2c-0.265 0-0.52 0.105-0.707 0.293s-0.293 0.442-0.293 0.707v1.5c0 0.265 0.105 0.52 0.293 0.707s0.442 0.293 0.707 0.293h2c0.265 0 0.52-0.105 0.707-0.293s0.293-0.442 0.293-0.707v-1.5zM12.352 20.5v-1.5h2v1.5h-2z"></path>
<path fill="#18a739" style="fill: var(--color2, #18a739)" d="M9.352 19c0-0.265-0.105-0.52-0.293-0.707s-0.442-0.293-0.707-0.293h-2c-0.265 0-0.52 0.105-0.707 0.293s-0.293 0.442-0.293 0.707v1.5c0 0.265 0.105 0.52 0.293 0.707s0.442 0.293 0.707 0.293h2c0.265 0 0.52-0.105 0.707-0.293s0.293-0.442 0.293-0.707v-1.5zM6.352 20.5v-1.5h2v1.5h-2z"></path>
<path fill="#18a739" style="fill: var(--color2, #18a739)" d="M14.352 22.5h-2c-0.265 0-0.52 0.105-0.707 0.293s-0.293 0.442-0.293 0.707v1.5c0 0.265 0.105 0.52 0.293 0.707s0.442 0.293 0.707 0.293h2c0.265 0 0.52-0.105 0.707-0.293s0.293-0.442 0.293-0.707v-1.5c0-0.265-0.105-0.52-0.293-0.707s-0.442-0.293-0.707-0.293zM12.352 25v-1.5h2v1.5h-2z"></path>
<path fill="#18a739" style="fill: var(--color2, #18a739)" d="M18.352 17h2c0.265 0 0.52-0.105 0.707-0.293s0.293-0.442 0.293-0.707v-1.5c0-0.265-0.105-0.52-0.293-0.707s-0.442-0.293-0.707-0.293h-2c-0.265 0-0.52 0.105-0.707 0.293s-0.293 0.442-0.293 0.707v1.5c0 0.265 0.105 0.52 0.293 0.707s0.442 0.293 0.707 0.293zM18.352 14.5h2v1.5h-2v-1.5z"></path>
<path fill="#18a739" style="fill: var(--color2, #18a739)" d="M17.352 20.5c0 0.265 0.105 0.52 0.293 0.707s0.442 0.293 0.707 0.293c0.133 0 0.26-0.053 0.354-0.146s0.146-0.221 0.146-0.354c0-0.133-0.053-0.26-0.146-0.354s-0.221-0.146-0.354-0.146v-1.5h2c0.133 0 0.26-0.053 0.354-0.146s0.146-0.221 0.146-0.354c0-0.133-0.053-0.26-0.146-0.354s-0.221-0.146-0.354-0.146h-2c-0.265 0-0.52 0.105-0.707 0.293s-0.293 0.442-0.293 0.707v1.5z"></path>
<path fill="#18a739" style="fill: var(--color2, #18a739)" d="M8.352 22.5h-2c-0.265 0-0.52 0.105-0.707 0.293s-0.293 0.442-0.293 0.707v1.5c0 0.265 0.105 0.52 0.293 0.707s0.442 0.293 0.707 0.293h2c0.265 0 0.52-0.105 0.707-0.293s0.293-0.442 0.293-0.707v-1.5c0-0.265-0.105-0.52-0.293-0.707s-0.442-0.293-0.707-0.293zM6.352 25v-1.5h2v1.5h-2z"></path>
<path fill="#18a739" style="fill: var(--color2, #18a739)" d="M24.852 18c-1.286 0-2.542 0.381-3.611 1.095s-1.902 1.729-2.394 2.917c-0.492 1.188-0.621 2.495-0.37 3.756s0.87 2.419 1.779 3.328c0.909 0.909 2.067 1.528 3.328 1.779s2.568 0.122 3.756-0.37c1.188-0.492 2.203-1.325 2.917-2.394s1.095-2.326 1.095-3.611c-0.002-1.723-0.687-3.375-1.906-4.594s-2.871-1.904-4.594-1.906zM24.852 30c-1.088 0-2.151-0.323-3.056-0.927s-1.609-1.463-2.026-2.468c-0.416-1.005-0.525-2.111-0.313-3.178s0.736-2.047 1.505-2.816c0.769-0.769 1.749-1.293 2.816-1.505s2.173-0.103 3.178 0.313c1.005 0.416 1.864 1.121 2.468 2.026s0.927 1.968 0.927 3.056c-0.002 1.458-0.582 2.856-1.613 3.887s-2.429 1.611-3.887 1.613z"></path>
<path fill="#18a739" style="fill: var(--color2, #18a739)" d="M27.741 22.404l-3.889 3.889-1.768-1.768c-0.094-0.091-0.221-0.141-0.352-0.14s-0.257 0.054-0.349 0.146c-0.093 0.093-0.145 0.218-0.146 0.349s0.049 0.257 0.14 0.352l2.121 2.122c0.094 0.094 0.221 0.146 0.354 0.146s0.26-0.053 0.354-0.146l4.242-4.242c0.091-0.094 0.141-0.221 0.14-0.352s-0.054-0.256-0.146-0.349c-0.093-0.093-0.218-0.145-0.349-0.146s-0.257 0.049-0.352 0.14z"></path>
</symbol>
</defs>
</svg>
