<?xml version="1.0" encoding="UTF-8"?>
<!DOCTYPE svg PUBLIC "-//W3C//DTD SVG 1.1//EN" "http://www.w3.org/Graphics/SVG/1.1/DTD/svg11.dtd">
<!-- Creator: CorelDRAW 2019 (64-Bit) -->
<svg xmlns="http://www.w3.org/2000/svg" xml:space="preserve" width="31.5658mm" height="12.5906mm" version="1.1" style="shape-rendering:geometricPrecision; text-rendering:geometricPrecision; image-rendering:optimizeQuality; fill-rule:evenodd; clip-rule:evenodd"
viewBox="0 0 1826.82 728.66"
 xmlns:xlink="http://www.w3.org/1999/xlink"
 xmlns:xodm="http://www.corel.com/coreldraw/odm/2003">
 <defs>
  <style type="text/css">
   <![CDATA[
    .fil5 {fill:url(#id0)}
    .fil19 {fill:url(#id1)}
    .fil10 {fill:url(#id2)}
    .fil16 {fill:url(#id3)}
    .fil17 {fill:url(#id4)}
    .fil13 {fill:url(#id5)}
    .fil12 {fill:url(#id6)}
    .fil14 {fill:url(#id7)}
    .fil18 {fill:url(#id8)}
    .fil4 {fill:url(#id9)}
    .fil8 {fill:url(#id10)}
    .fil6 {fill:url(#id11)}
    .fil9 {fill:url(#id12)}
    .fil11 {fill:url(#id13)}
    .fil7 {fill:url(#id14)}
    .fil15 {fill:url(#id15)}
    .fil2 {fill:url(#id16)}
    .fil1 {fill:url(#id17)}
    .fil3 {fill:url(#id18)}
    .fil0 {fill:url(#id19)}
   ]]>
  </style>
  <linearGradient id="id0" gradientUnits="userSpaceOnUse" x1="1481.28" y1="192.36" x2="1311.95" y2="180.61">
   <stop offset="0" style="stop-opacity:1; stop-color:#1B8F27"/>
   <stop offset="0.219608" style="stop-opacity:1; stop-color:#18AD34"/>
   <stop offset="0.34902" style="stop-opacity:1; stop-color:#24451F"/>
   <stop offset="1" style="stop-opacity:1; stop-color:#14CC42"/>
  </linearGradient>
  <linearGradient id="id1" gradientUnits="userSpaceOnUse" xlink:href="#id0" x1="1536.31" y1="555.04" x2="1476.27" y2="519.24">
  </linearGradient>
  <linearGradient id="id2" gradientUnits="userSpaceOnUse" xlink:href="#id0" x1="1930.03" y1="717.06" x2="1580.33" y2="558.81">
  </linearGradient>
  <linearGradient id="id3" gradientUnits="userSpaceOnUse" xlink:href="#id0" x1="1346.45" y1="449.57" x2="1170.41" y2="341.35">
  </linearGradient>
  <linearGradient id="id4" gradientUnits="userSpaceOnUse" xlink:href="#id0" x1="1086.08" y1="603.15" x2="944.68" y2="581.4">
  </linearGradient>
  <linearGradient id="id5" gradientUnits="userSpaceOnUse" xlink:href="#id0" x1="1533" y1="701.16" x2="1243.27" y2="536.87">
  </linearGradient>
  <linearGradient id="id6" gradientUnits="userSpaceOnUse" xlink:href="#id0" x1="1245.94" y1="702.29" x2="956.17" y2="536.45">
  </linearGradient>
  <linearGradient id="id7" gradientUnits="userSpaceOnUse" xlink:href="#id0" x1="1752.68" y1="699.96" x2="1464.37" y2="538.06">
  </linearGradient>
  <linearGradient id="id8" gradientUnits="userSpaceOnUse" xlink:href="#id0" x1="1541.95" y1="623.79" x2="1471.24" y2="616.12">
  </linearGradient>
  <linearGradient id="id9" gradientUnits="userSpaceOnUse" xlink:href="#id0" x1="276.87" y1="719.5" x2="-151.72" y2="467.27">
  </linearGradient>
  <linearGradient id="id10" gradientUnits="userSpaceOnUse" xlink:href="#id0" x1="796.44" y1="697.26" x2="395.78" y2="489.51">
  </linearGradient>
  <linearGradient id="id11" gradientUnits="userSpaceOnUse" xlink:href="#id0" x1="472.57" y1="744.31" x2="22.42" y2="443.62">
  </linearGradient>
  <linearGradient id="id12" gradientUnits="userSpaceOnUse" xlink:href="#id0" x1="986.81" y1="744.31" x2="536.66" y2="443.61">
  </linearGradient>
  <linearGradient id="id13" gradientUnits="userSpaceOnUse" xlink:href="#id0" x1="1388.47" y1="713.88" x2="1085.82" y2="524.56">
  </linearGradient>
  <linearGradient id="id14" gradientUnits="userSpaceOnUse" xlink:href="#id0" x1="628.81" y1="699.7" x2="227.08" y2="488.22">
  </linearGradient>
  <linearGradient id="id15" gradientUnits="userSpaceOnUse" xlink:href="#id0" x1="1041.21" y1="692.14" x2="763.51" y2="546.11">
  </linearGradient>
  <linearGradient id="id16" gradientUnits="userSpaceOnUse" xlink:href="#id0" x1="2093.55" y1="378.97" x2="1200.93" y2="-6.06">
  </linearGradient>
  <linearGradient id="id17" gradientUnits="userSpaceOnUse" xlink:href="#id0" x1="565.73" y1="380.94" x2="-330.61" y2="-8.03">
  </linearGradient>
  <linearGradient id="id18" gradientUnits="userSpaceOnUse" xlink:href="#id0" x1="991.07" y1="434.14" x2="-12.32" y2="-63.53">
  </linearGradient>
  <linearGradient id="id19" gradientUnits="userSpaceOnUse" xlink:href="#id0" x1="1490.17" y1="538.43" x2="355.86" y2="-163.2">
  </linearGradient>
 </defs>
 <g id="Слой_x0020_1">
  <metadata id="CorelCorpID_0Corel-Layer"/>
  <g id="_2158671607152">
   <path class="fil0" d="M983.23 254.91l-2.36 -4.02 2.36 4.02zm-65.82 -65.83l0 0zm0 0l-2.06 -2.06 2.06 2.06zm106.96 -12.34l0 0zm-41.14 78.17c4.83,3.53 3.65,3.55 7.41,9.04 12.58,18.32 43.87,52.24 68.47,50.46 16.52,-1.19 49.94,-21.7 33.78,-56.03 -4.24,-9.02 -10.21,-12.71 -15.04,-19.93 9.84,-2.63 24.91,-16.98 29.48,-26.05 11.73,-23.31 -8.4,-65.66 -46.3,-54.54 -16.87,4.94 -23.4,11.88 -36.66,18.88 1.76,-6.59 39.48,-49.41 10.88,-78.75 -33.03,-33.9 -52.26,4.13 -68.48,14.99 -2.93,-10.96 -19.24,-21.37 -31.73,-24.01 -18.24,-3.85 -55.39,21.89 -41.13,61.9 8.22,23.05 14.6,23.25 21.43,36.16 -24.32,-5.67 -45.38,-27.59 -73.58,2.53 -16.08,17.18 -13.53,34.98 3.09,51.51 5,4.97 7.66,9.84 14.95,11.79 -1.83,6.85 -1.54,3.25 -4.64,9.76 -5.6,11.77 -10.31,24.69 -7.31,39.2 4.25,20.52 61.28,38.32 101.24,-19.32 4.16,-5.99 9.06,-16.05 13.55,-19.35 0,36.58 0.16,62.98 -13.68,87.12 -28.03,48.89 -149.86,42.1 -165.67,-86.72 -10.28,-83.74 18.64,-155.51 78.53,-197.88 27.92,-19.75 61.42,-28.76 96.06,-33.53 53.14,-7.3 113.85,16.33 149.26,51.53 49.15,48.87 74.25,154.82 30.26,230.84 -39.04,67.47 -118.81,100.86 -207.69,100.86 6.41,9.56 26.89,15.3 41.92,17.73 49.06,7.95 101.16,-14.76 138.81,-42.7 86.93,-64.48 106.37,-204.82 34.68,-301.53 -5.35,-7.22 -9.12,-10.45 -14.14,-16.72 -11.08,-13.85 -33.77,-31.3 -49.71,-40.79 -12.68,-7.56 -27.16,-14.83 -42.27,-19.44 -189.6,-57.9 -326.68,131.13 -275.18,289.57 18.47,56.79 62.07,109.73 133.3,106.01 22.41,-1.17 31.22,-4.35 45.78,-13.9 56.04,-36.74 40.27,-97.1 40.27,-138.68z"/>
   <path class="fil1" d="M2.05 28.65l0 374.36c0,12.02 10.61,22.63 22.63,22.63l248.9 0c31.93,0 35.81,-45.25 -6.18,-45.25l-218.04 0 0 -143.99 166.62 0c24.5,0 33.57,-45.26 -10.28,-45.26l-156.33 0 0 -139.87 222.15 0c37.09,0 32.21,-45.25 4.11,-45.25l-250.95 0c-12.02,0 -22.63,10.61 -22.63,22.63z"/>
   <path class="fil2" d="M1532.44 26.59l0 378.49c0,10.34 10.23,20.57 20.57,20.57l253.01 0c26.29,0 31.22,-45.25 -6.18,-45.25l-220.09 0 0 -143.99 166.62 0c24.15,0 28.75,-45.26 -8.23,-45.26l-158.39 0 0 -139.87 220.09 0c37.84,0 31.92,-45.25 6.18,-45.25l-253.01 0c-10.34,0 -20.57,10.23 -20.57,20.57z"/>
   <path class="fil3" d="M353.8 215.83c0,27.32 7.32,62.49 17.91,87 9.36,21.66 25.71,47.94 42.21,64.75 5.67,5.77 8.11,7.59 14.22,12.52 21.22,17.13 20.47,17.77 48.38,31.84 93.51,47.14 224.91,-3.1 224.91,-45.96 0,-10.45 -9.42,-20.57 -22.63,-20.57 -19.29,0 -37.77,41.14 -123.41,41.14 -21.89,0 -47.64,-7.84 -62.4,-15.77 -25.92,-13.92 -35.56,-23.58 -53.32,-43.35 -21.64,-24.08 -38.55,-65.89 -38.55,-99.27 0,-34.66 -0.32,-55.22 15.75,-87.09 25.92,-51.41 78.7,-95.98 136.47,-95.98 42.1,0 66.51,2.03 100.22,27.3 9.07,6.8 26.49,23.81 40.11,6.08 9.33,-12.15 10.56,-23.25 -1.01,-32.84 -60.27,-49.94 -145.11,-59.02 -214.77,-26.6 -35.64,16.59 -64.57,41.4 -86.68,73.76 -14.19,20.77 -26.82,49.38 -31.81,75.15 -2.18,11.27 -5.6,34.08 -5.6,47.88z"/>
   <path class="fil4" d="M-0 528.49l0 160.44 53.48 0 0 -65.82 55.54 0 0 65.82 51.43 0 0 -166.61 -51.43 0 0 57.6 -55.54 0 0 -57.6c-30.19,0 -53.48,-4.7 -53.48,6.17z"/>
   <path class="fil5" d="M1378.16 28.65l0 374.36c0,29.61 47.31,29.43 47.31,2.06l0 -378.49c0,-27.37 -47.31,-27.55 -47.31,2.06z"/>
   <path class="fil6" d="M267.4 569.63c3.02,12.96 15.65,45.92 16.46,55.54l-32.91 0c0.84,-10.09 4.66,-18.16 7.36,-27.61 1.77,-6.19 2.35,-8.56 4.18,-14.32l4.91 -13.6zm-90.51 119.3l53.49 0c1.2,-5.16 6.28,-22.68 8.22,-26.74l57.6 0c0.94,11.34 5.9,14.41 6.17,26.74l55.54 0 -46.13 -124.6c-2.89,-7.55 -4.95,-13.47 -7.93,-20.86 -3.1,-7.7 -5.75,-13.01 -7.65,-21.15l-57.6 0c-0.78,9.43 -11.13,31.16 -14.64,40.9l-47.07 125.71z"/>
   <path class="fil7" d="M425.79 594.31l0 -37.03 14.4 0c16.05,0 27.47,9.69 23.13,23 -4.16,12.77 -21.19,14.03 -37.53,14.03zm-53.48 -65.83l0 160.44 53.48 0 0 -61.7c28.94,0 53.45,4.2 73.53,-12.87 18.86,-16.02 35.71,-92.04 -44.73,-92.04l-76.11 0c-4.74,0 -6.17,1.43 -6.17,6.17z"/>
   <path class="fil8" d="M592.4 594.31l0 -37.03c13.74,0 39.09,-2.53 39.09,18.51 0,2.58 -2.35,8.81 -3.69,10.71 -2.65,3.72 -5.06,4.42 -9.11,5.29 -7.61,1.63 -17.99,2.52 -26.29,2.52zm-51.42 94.62l51.42 0 0 -61.7c29.46,0 74.86,6.24 86.74,-32.57 6.42,-20.97 3.66,-45.24 -12.81,-59.87 -21.1,-18.74 -89.05,-12.47 -125.35,-12.47l0 166.61z"/>
   <path class="fil9" d="M754.9 621.05l0 67.88 53.48 0c0,-84.73 -8.38,-57.36 31.26,-116.83 5.82,-8.73 10.65,-15.94 16.46,-24.68 5.32,-8.02 14.34,-18.69 16.04,-25.09l-57.6 0 -24.27 41.55c-4.15,7.15 -3.34,9.97 -10.69,11.93 -1.91,-7.16 -25.36,-43.09 -30.85,-53.48l-57.6 0c8.69,16.42 63.76,93.53 63.76,98.73z"/>
   <path class="fil10" d="M1760.76 586.08c35.23,0 47.31,12.08 47.31,47.31 0,43.9 -75.92,54.33 -80.78,-1.3 -0.93,-10.64 0.81,-20.92 7.54,-30.81 4.34,-6.38 16.56,-15.2 25.93,-15.2zm-2.05 98.73c14.76,0 28.93,0.95 42.75,-12.79l5.69 -6.64c0.19,-0.23 0.61,-0.76 0.93,-1.13 0,16.66 -0.98,24.91 -8.74,34.45 -17.22,21.18 -46.66,18.49 -65.72,0.93 -5.7,-5.25 -3.05,-5.85 -11.93,-6.59 -2.48,3.72 -4.11,3.62 -4.11,8.23 0,27.67 109.02,58.87 109.02,-41.14 0,-26.34 1.69,-49.39 -13.14,-69.13 -26.77,-35.62 -97.19,-28.5 -103.69,32.66 -2.96,27.84 19.86,61.15 48.95,61.15z"/>
   <path class="fil11" d="M1246.52 586.08c62.39,0 52.77,84.34 4.11,84.34 -57.16,0 -53.34,-84.34 -4.11,-84.34zm-6.18 98.73c21.01,0 32.94,0.39 49.37,-18.51 0,25.16 8.26,16.46 16.45,16.46 3.63,-15.6 2.05,-26.63 2.05,-45.25 0,-23.32 -4.47,-34.98 -15.19,-48.58 -32.39,-41.08 -118.02,-13.63 -98.77,57.63 1.97,7.29 6.19,12.85 10.2,18.6 6.25,8.94 21.59,19.65 35.88,19.65z"/>
   <path class="fil12" d="M1106.65 586.08l10.28 0c19.18,0 31.43,15.13 32.91,32.91l-74.05 0c3.36,-14.45 13.99,-32.91 30.85,-32.91zm-47.31 39.08c0,34.08 22.42,59.65 49.37,59.65 18.44,0 22.48,1.23 39.1,-8.23 2.64,-1.5 7.54,-4.12 8.8,-7.48 1.64,-4.39 -0.42,-8.97 -8.83,-8.97 -4.31,0 -14.93,10.29 -30.85,10.29 -22.68,0 -39.4,-16.13 -41.14,-37.03l74.2 0.15c8.91,0.05 16.3,0.21 16.3,-8.38 0,-75.97 -106.96,-71.2 -106.96,0z"/>
   <path class="fil13" d="M1363.77 584.03c0,-8.36 0.69,-6.63 -2.05,-12.34l-12.34 0c-4.6,19.72 -2.05,80.74 -2.05,104.91 0,4.82 3.41,8.22 8.23,8.22 27.72,0 -23.79,-98.73 47.31,-98.73 59.11,0 16.07,98.73 41.14,98.73 4.82,0 8.22,-3.41 8.22,-8.22 0,-35.85 6.25,-74.91 -14.93,-94.08 -23.46,-21.23 -50.72,-13.74 -73.52,1.52z"/>
   <path class="fil14" d="M1583.86 584.03c-0.4,-17.73 -16.45,-14.37 -16.45,-6.18l0 98.74c0,4.82 3.41,8.22 8.22,8.22 11.22,0 8.3,-15.21 8.24,-26.73 -0.21,-39.59 -7.89,-72 37.02,-72 10.56,0 20.87,4.76 26.01,11.01 12.11,14.76 9.15,45.15 8.92,65.13 -0.21,18.6 -2.29,24.43 14.43,20.53 4.17,-17.89 2.05,-38.99 2.05,-57.6 0,-47.86 -40.6,-64.65 -72.02,-51.46 -8.1,3.4 -10.16,6.12 -16.42,10.32z"/>
   <path class="fil15" d="M863.93 627.22c0,29.09 23.32,57.59 49.37,57.59 61.17,0 53.96,-35.92 31.8,-21.86 -26.82,17.01 -59.55,3.82 -64.03,-30.4 -2.8,-21.36 12.84,-46.48 32.23,-46.48 38.87,0 27.53,14.98 45.25,16.46 4.36,-6.5 9.63,-13.06 -11.6,-25.43 -15.08,-8.79 -33.17,-10.15 -49.5,-2.77 -3.57,1.61 -6.24,3.1 -9.22,5.19 -1.35,0.95 -2.15,1.59 -3.47,2.7 -11.45,9.67 -20.82,25.98 -20.82,45z"/>
   <path class="fil16" d="M1232.12 400.96c0,45.19 67.5,42.65 67.45,0 -0.01,-7.84 -4.62,-18.18 -9.24,-23.25 -21.82,-23.94 -58.21,-6.67 -58.21,23.25z"/>
   <path class="fil17" d="M999.68 530.54l0 125.47c0,12.6 11.21,33.24 39.08,26.74 5.67,-24.34 -10.71,-5.96 -19.96,-21.18 -9.04,-14.87 4.19,-98.94 -4.72,-137.21 -6.51,-1.52 -14.4,-3.58 -14.4,6.17z"/>
   <path class="fil18" d="M1499.52 579.91c0,23.91 -2.51,83.22 2.06,102.85 12.74,3.38 6.68,0 14.4,0 4.57,-19.63 2.05,-75.17 2.05,-98.73 0,-18.11 -18.51,-14.08 -18.51,-4.11z"/>
   <path class="fil19" d="M1497.47 536.72l0 4.11c0,12.81 22.62,12.81 22.62,0l0 -4.11c0,-12.82 -22.62,-12.82 -22.62,0z"/>
  </g>
 </g>
</svg>
